<mxfile host="app.diagrams.net" agent="Mozilla/5.0 (Macintosh; Intel Mac OS X 10_15_7) AppleWebKit/537.36 (KHTML, like Gecko) Chrome/130.0.0.0 Safari/537.36" version="24.8.3">
  <diagram name="Page-1" id="pbwa8Nl_jLZ17MyfzR1H">
    <mxGraphModel dx="2898" dy="716" grid="1" gridSize="10" guides="1" tooltips="1" connect="1" arrows="1" fold="1" page="1" pageScale="1" pageWidth="827" pageHeight="1169" math="0" shadow="0">
      <root>
        <mxCell id="0" />
        <mxCell id="1" parent="0" />
        <mxCell id="NPjLxnOg4CO_xDkKk2QQ-44" value="" style="rounded=0;whiteSpace=wrap;html=1;fillColor=none;" vertex="1" parent="1">
          <mxGeometry x="1200" y="220" width="540" height="330" as="geometry" />
        </mxCell>
        <mxCell id="7YbLA0zynvhZLxva_ZGY-5" style="edgeStyle=orthogonalEdgeStyle;rounded=0;orthogonalLoop=1;jettySize=auto;html=1;entryX=0;entryY=0.5;entryDx=0;entryDy=0;" parent="1" source="7YbLA0zynvhZLxva_ZGY-1" target="7YbLA0zynvhZLxva_ZGY-2" edge="1">
          <mxGeometry relative="1" as="geometry" />
        </mxCell>
        <mxCell id="7YbLA0zynvhZLxva_ZGY-1" value="SCX" style="rounded=0;whiteSpace=wrap;html=1;" parent="1" vertex="1">
          <mxGeometry x="-900" y="110" width="120" height="60" as="geometry" />
        </mxCell>
        <mxCell id="7YbLA0zynvhZLxva_ZGY-6" style="edgeStyle=orthogonalEdgeStyle;rounded=0;orthogonalLoop=1;jettySize=auto;html=1;" parent="1" source="7YbLA0zynvhZLxva_ZGY-2" target="7YbLA0zynvhZLxva_ZGY-3" edge="1">
          <mxGeometry relative="1" as="geometry" />
        </mxCell>
        <mxCell id="7YbLA0zynvhZLxva_ZGY-7" style="edgeStyle=orthogonalEdgeStyle;rounded=0;orthogonalLoop=1;jettySize=auto;html=1;entryX=0;entryY=0.5;entryDx=0;entryDy=0;" parent="1" source="7YbLA0zynvhZLxva_ZGY-2" target="7YbLA0zynvhZLxva_ZGY-4" edge="1">
          <mxGeometry relative="1" as="geometry" />
        </mxCell>
        <mxCell id="7YbLA0zynvhZLxva_ZGY-2" value="Page Level" style="rounded=0;whiteSpace=wrap;html=1;" parent="1" vertex="1">
          <mxGeometry x="-740" y="110" width="120" height="60" as="geometry" />
        </mxCell>
        <mxCell id="7YbLA0zynvhZLxva_ZGY-3" value="Builder Metadata" style="rounded=0;whiteSpace=wrap;html=1;" parent="1" vertex="1">
          <mxGeometry x="-540" y="70" width="120" height="60" as="geometry" />
        </mxCell>
        <mxCell id="7YbLA0zynvhZLxva_ZGY-4" value="Builder Registry" style="rounded=0;whiteSpace=wrap;html=1;" parent="1" vertex="1">
          <mxGeometry x="-540" y="150" width="120" height="60" as="geometry" />
        </mxCell>
        <mxCell id="7YbLA0zynvhZLxva_ZGY-14" style="edgeStyle=orthogonalEdgeStyle;rounded=0;orthogonalLoop=1;jettySize=auto;html=1;entryX=0;entryY=0.5;entryDx=0;entryDy=0;" parent="1" source="7YbLA0zynvhZLxva_ZGY-8" target="7YbLA0zynvhZLxva_ZGY-9" edge="1">
          <mxGeometry relative="1" as="geometry" />
        </mxCell>
        <mxCell id="7YbLA0zynvhZLxva_ZGY-21" style="edgeStyle=orthogonalEdgeStyle;rounded=0;orthogonalLoop=1;jettySize=auto;html=1;entryX=0.5;entryY=0;entryDx=0;entryDy=0;" parent="1" source="7YbLA0zynvhZLxva_ZGY-8" target="7YbLA0zynvhZLxva_ZGY-20" edge="1">
          <mxGeometry relative="1" as="geometry" />
        </mxCell>
        <mxCell id="7YbLA0zynvhZLxva_ZGY-8" value="Studio" style="rounded=0;whiteSpace=wrap;html=1;" parent="1" vertex="1">
          <mxGeometry x="40" y="870" width="120" height="60" as="geometry" />
        </mxCell>
        <mxCell id="7YbLA0zynvhZLxva_ZGY-15" style="edgeStyle=orthogonalEdgeStyle;rounded=0;orthogonalLoop=1;jettySize=auto;html=1;entryX=0;entryY=0.5;entryDx=0;entryDy=0;" parent="1" source="7YbLA0zynvhZLxva_ZGY-9" target="7YbLA0zynvhZLxva_ZGY-10" edge="1">
          <mxGeometry relative="1" as="geometry" />
        </mxCell>
        <mxCell id="7YbLA0zynvhZLxva_ZGY-16" style="edgeStyle=orthogonalEdgeStyle;rounded=0;orthogonalLoop=1;jettySize=auto;html=1;entryX=0;entryY=0.5;entryDx=0;entryDy=0;" parent="1" source="7YbLA0zynvhZLxva_ZGY-9" target="7YbLA0zynvhZLxva_ZGY-11" edge="1">
          <mxGeometry relative="1" as="geometry" />
        </mxCell>
        <mxCell id="7YbLA0zynvhZLxva_ZGY-9" value="Master Config" style="rounded=0;whiteSpace=wrap;html=1;" parent="1" vertex="1">
          <mxGeometry x="240" y="870" width="120" height="60" as="geometry" />
        </mxCell>
        <mxCell id="7YbLA0zynvhZLxva_ZGY-17" style="edgeStyle=orthogonalEdgeStyle;rounded=0;orthogonalLoop=1;jettySize=auto;html=1;entryX=0;entryY=0.5;entryDx=0;entryDy=0;" parent="1" source="7YbLA0zynvhZLxva_ZGY-10" target="7YbLA0zynvhZLxva_ZGY-12" edge="1">
          <mxGeometry relative="1" as="geometry" />
        </mxCell>
        <mxCell id="7YbLA0zynvhZLxva_ZGY-10" value="Step Config" style="rounded=0;whiteSpace=wrap;html=1;" parent="1" vertex="1">
          <mxGeometry x="440" y="810" width="120" height="60" as="geometry" />
        </mxCell>
        <mxCell id="7YbLA0zynvhZLxva_ZGY-11" value="Component Config" style="rounded=0;whiteSpace=wrap;html=1;" parent="1" vertex="1">
          <mxGeometry x="440" y="930" width="120" height="60" as="geometry" />
        </mxCell>
        <mxCell id="7YbLA0zynvhZLxva_ZGY-18" style="edgeStyle=orthogonalEdgeStyle;rounded=0;orthogonalLoop=1;jettySize=auto;html=1;entryX=1;entryY=0.5;entryDx=0;entryDy=0;" parent="1" source="7YbLA0zynvhZLxva_ZGY-12" target="7YbLA0zynvhZLxva_ZGY-11" edge="1">
          <mxGeometry relative="1" as="geometry" />
        </mxCell>
        <mxCell id="7YbLA0zynvhZLxva_ZGY-12" value="Each Step Config of Components" style="rounded=0;whiteSpace=wrap;html=1;" parent="1" vertex="1">
          <mxGeometry x="640" y="870" width="120" height="60" as="geometry" />
        </mxCell>
        <mxCell id="7YbLA0zynvhZLxva_ZGY-13" value="Each Component Config with all variants" style="rounded=0;whiteSpace=wrap;html=1;" parent="1" vertex="1">
          <mxGeometry x="640" y="1030" width="120" height="60" as="geometry" />
        </mxCell>
        <mxCell id="7YbLA0zynvhZLxva_ZGY-19" style="edgeStyle=orthogonalEdgeStyle;rounded=0;orthogonalLoop=1;jettySize=auto;html=1;entryX=-0.008;entryY=0.673;entryDx=0;entryDy=0;entryPerimeter=0;" parent="1" source="7YbLA0zynvhZLxva_ZGY-11" target="7YbLA0zynvhZLxva_ZGY-13" edge="1">
          <mxGeometry relative="1" as="geometry">
            <Array as="points">
              <mxPoint x="600" y="970" />
              <mxPoint x="600" y="1070" />
            </Array>
          </mxGeometry>
        </mxCell>
        <mxCell id="7YbLA0zynvhZLxva_ZGY-22" style="edgeStyle=orthogonalEdgeStyle;rounded=0;orthogonalLoop=1;jettySize=auto;html=1;entryX=0.5;entryY=1;entryDx=0;entryDy=0;" parent="1" source="7YbLA0zynvhZLxva_ZGY-20" target="7YbLA0zynvhZLxva_ZGY-9" edge="1">
          <mxGeometry relative="1" as="geometry" />
        </mxCell>
        <mxCell id="7YbLA0zynvhZLxva_ZGY-24" style="edgeStyle=orthogonalEdgeStyle;rounded=0;orthogonalLoop=1;jettySize=auto;html=1;entryX=0.5;entryY=0;entryDx=0;entryDy=0;" parent="1" source="7YbLA0zynvhZLxva_ZGY-20" target="7YbLA0zynvhZLxva_ZGY-23" edge="1">
          <mxGeometry relative="1" as="geometry" />
        </mxCell>
        <mxCell id="7YbLA0zynvhZLxva_ZGY-20" value="Client, Country, Brand, Program Definition" style="rounded=0;whiteSpace=wrap;html=1;" parent="1" vertex="1">
          <mxGeometry x="80" y="990" width="120" height="60" as="geometry" />
        </mxCell>
        <mxCell id="7YbLA0zynvhZLxva_ZGY-23" value="Client Selections and Options&lt;br&gt;(Step V1, V2, ...)" style="rounded=0;whiteSpace=wrap;html=1;" parent="1" vertex="1">
          <mxGeometry x="240" y="1070" width="120" height="60" as="geometry" />
        </mxCell>
        <mxCell id="7YbLA0zynvhZLxva_ZGY-25" value="Audit/History" style="rounded=0;whiteSpace=wrap;html=1;" parent="1" vertex="1">
          <mxGeometry x="185" y="600" width="120" height="60" as="geometry" />
        </mxCell>
        <mxCell id="7YbLA0zynvhZLxva_ZGY-26" value="Authentication" style="rounded=0;whiteSpace=wrap;html=1;" parent="1" vertex="1">
          <mxGeometry x="335" y="600" width="120" height="60" as="geometry" />
        </mxCell>
        <mxCell id="7YbLA0zynvhZLxva_ZGY-27" value="Authorisation/Access Level" style="rounded=0;whiteSpace=wrap;html=1;" parent="1" vertex="1">
          <mxGeometry x="475" y="600" width="120" height="60" as="geometry" />
        </mxCell>
        <mxCell id="7YbLA0zynvhZLxva_ZGY-28" value="Client" style="rounded=0;whiteSpace=wrap;html=1;" parent="1" vertex="1">
          <mxGeometry x="40" y="600" width="120" height="60" as="geometry" />
        </mxCell>
        <mxCell id="7YbLA0zynvhZLxva_ZGY-29" value="UI Configs" style="rounded=0;whiteSpace=wrap;html=1;" parent="1" vertex="1">
          <mxGeometry x="40" y="440" width="120" height="60" as="geometry" />
        </mxCell>
        <mxCell id="7YbLA0zynvhZLxva_ZGY-30" value="BE Configs" style="rounded=0;whiteSpace=wrap;html=1;" parent="1" vertex="1">
          <mxGeometry x="190" y="440" width="120" height="60" as="geometry" />
        </mxCell>
        <mxCell id="7YbLA0zynvhZLxva_ZGY-31" value="TYPE OF CONFIGS:" style="text;html=1;align=left;verticalAlign=middle;whiteSpace=wrap;rounded=0;" parent="1" vertex="1">
          <mxGeometry x="40" y="410" width="130" height="30" as="geometry" />
        </mxCell>
        <mxCell id="7YbLA0zynvhZLxva_ZGY-32" value="TYPE OF SYSTEMS:" style="text;html=1;align=left;verticalAlign=middle;whiteSpace=wrap;rounded=0;" parent="1" vertex="1">
          <mxGeometry x="40" y="570" width="130" height="30" as="geometry" />
        </mxCell>
        <mxCell id="7YbLA0zynvhZLxva_ZGY-33" value="STUDIO FLOW:" style="text;html=1;align=left;verticalAlign=middle;whiteSpace=wrap;rounded=0;" parent="1" vertex="1">
          <mxGeometry x="40" y="770" width="130" height="30" as="geometry" />
        </mxCell>
        <mxCell id="7YbLA0zynvhZLxva_ZGY-38" style="edgeStyle=orthogonalEdgeStyle;rounded=0;orthogonalLoop=1;jettySize=auto;html=1;entryX=0;entryY=0.5;entryDx=0;entryDy=0;" parent="1" source="7YbLA0zynvhZLxva_ZGY-34" target="7YbLA0zynvhZLxva_ZGY-37" edge="1">
          <mxGeometry relative="1" as="geometry" />
        </mxCell>
        <mxCell id="7YbLA0zynvhZLxva_ZGY-34" value="UI" style="rounded=0;whiteSpace=wrap;html=1;" parent="1" vertex="1">
          <mxGeometry x="40" y="1200" width="120" height="60" as="geometry" />
        </mxCell>
        <mxCell id="7YbLA0zynvhZLxva_ZGY-35" value="SCX FLOW:" style="text;html=1;align=left;verticalAlign=middle;whiteSpace=wrap;rounded=0;" parent="1" vertex="1">
          <mxGeometry x="40" y="1169" width="130" height="30" as="geometry" />
        </mxCell>
        <mxCell id="7YbLA0zynvhZLxva_ZGY-40" style="edgeStyle=orthogonalEdgeStyle;rounded=0;orthogonalLoop=1;jettySize=auto;html=1;entryX=0;entryY=0.5;entryDx=0;entryDy=0;" parent="1" source="7YbLA0zynvhZLxva_ZGY-37" target="7YbLA0zynvhZLxva_ZGY-39" edge="1">
          <mxGeometry relative="1" as="geometry" />
        </mxCell>
        <mxCell id="7YbLA0zynvhZLxva_ZGY-37" value="Client and Version Resolver" style="rounded=0;whiteSpace=wrap;html=1;" parent="1" vertex="1">
          <mxGeometry x="240" y="1200" width="120" height="60" as="geometry" />
        </mxCell>
        <mxCell id="7YbLA0zynvhZLxva_ZGY-39" value="Get UI Config from CDN" style="rounded=0;whiteSpace=wrap;html=1;" parent="1" vertex="1">
          <mxGeometry x="440" y="1200" width="120" height="60" as="geometry" />
        </mxCell>
        <mxCell id="NPjLxnOg4CO_xDkKk2QQ-3" value="" style="edgeStyle=orthogonalEdgeStyle;rounded=0;orthogonalLoop=1;jettySize=auto;html=1;" edge="1" parent="1" source="NPjLxnOg4CO_xDkKk2QQ-1" target="NPjLxnOg4CO_xDkKk2QQ-2">
          <mxGeometry relative="1" as="geometry" />
        </mxCell>
        <mxCell id="NPjLxnOg4CO_xDkKk2QQ-23" style="edgeStyle=orthogonalEdgeStyle;rounded=0;orthogonalLoop=1;jettySize=auto;html=1;entryX=0;entryY=0.5;entryDx=0;entryDy=0;" edge="1" parent="1" source="NPjLxnOg4CO_xDkKk2QQ-1" target="NPjLxnOg4CO_xDkKk2QQ-22">
          <mxGeometry relative="1" as="geometry" />
        </mxCell>
        <mxCell id="NPjLxnOg4CO_xDkKk2QQ-29" style="edgeStyle=orthogonalEdgeStyle;rounded=0;orthogonalLoop=1;jettySize=auto;html=1;" edge="1" parent="1" source="NPjLxnOg4CO_xDkKk2QQ-1">
          <mxGeometry relative="1" as="geometry">
            <mxPoint x="2200" y="1420" as="targetPoint" />
          </mxGeometry>
        </mxCell>
        <mxCell id="NPjLxnOg4CO_xDkKk2QQ-1" value="AEC STUDIO" style="rounded=0;whiteSpace=wrap;html=1;" vertex="1" parent="1">
          <mxGeometry x="2140" y="1310" width="120" height="60" as="geometry" />
        </mxCell>
        <mxCell id="NPjLxnOg4CO_xDkKk2QQ-2" value="Repo Dependency&lt;br&gt;(Checkout FE Repo)" style="whiteSpace=wrap;html=1;rounded=0;" vertex="1" parent="1">
          <mxGeometry x="2140" y="1200" width="120" height="60" as="geometry" />
        </mxCell>
        <mxCell id="NPjLxnOg4CO_xDkKk2QQ-6" value="" style="edgeStyle=orthogonalEdgeStyle;rounded=0;orthogonalLoop=1;jettySize=auto;html=1;" edge="1" parent="1" source="NPjLxnOg4CO_xDkKk2QQ-4" target="NPjLxnOg4CO_xDkKk2QQ-5">
          <mxGeometry relative="1" as="geometry" />
        </mxCell>
        <mxCell id="NPjLxnOg4CO_xDkKk2QQ-7" value="" style="edgeStyle=orthogonalEdgeStyle;rounded=0;orthogonalLoop=1;jettySize=auto;html=1;" edge="1" parent="1" source="NPjLxnOg4CO_xDkKk2QQ-4" target="NPjLxnOg4CO_xDkKk2QQ-5">
          <mxGeometry relative="1" as="geometry" />
        </mxCell>
        <mxCell id="NPjLxnOg4CO_xDkKk2QQ-8" value="" style="edgeStyle=orthogonalEdgeStyle;rounded=0;orthogonalLoop=1;jettySize=auto;html=1;" edge="1" parent="1" source="NPjLxnOg4CO_xDkKk2QQ-4" target="NPjLxnOg4CO_xDkKk2QQ-5">
          <mxGeometry relative="1" as="geometry" />
        </mxCell>
        <mxCell id="NPjLxnOg4CO_xDkKk2QQ-9" value="" style="edgeStyle=orthogonalEdgeStyle;rounded=0;orthogonalLoop=1;jettySize=auto;html=1;" edge="1" parent="1" source="NPjLxnOg4CO_xDkKk2QQ-4" target="NPjLxnOg4CO_xDkKk2QQ-5">
          <mxGeometry relative="1" as="geometry" />
        </mxCell>
        <mxCell id="NPjLxnOg4CO_xDkKk2QQ-11" style="edgeStyle=orthogonalEdgeStyle;rounded=0;orthogonalLoop=1;jettySize=auto;html=1;entryX=0;entryY=0.5;entryDx=0;entryDy=0;" edge="1" parent="1" source="NPjLxnOg4CO_xDkKk2QQ-4" target="NPjLxnOg4CO_xDkKk2QQ-10">
          <mxGeometry relative="1" as="geometry" />
        </mxCell>
        <mxCell id="NPjLxnOg4CO_xDkKk2QQ-12" style="edgeStyle=orthogonalEdgeStyle;rounded=0;orthogonalLoop=1;jettySize=auto;html=1;entryX=0.5;entryY=0;entryDx=0;entryDy=0;" edge="1" parent="1" source="NPjLxnOg4CO_xDkKk2QQ-4" target="NPjLxnOg4CO_xDkKk2QQ-2">
          <mxGeometry relative="1" as="geometry" />
        </mxCell>
        <mxCell id="NPjLxnOg4CO_xDkKk2QQ-4" value="CHECKOUT" style="rounded=0;whiteSpace=wrap;html=1;" vertex="1" parent="1">
          <mxGeometry x="2140" y="950" width="120" height="60" as="geometry" />
        </mxCell>
        <mxCell id="NPjLxnOg4CO_xDkKk2QQ-18" style="edgeStyle=orthogonalEdgeStyle;rounded=0;orthogonalLoop=1;jettySize=auto;html=1;entryX=0;entryY=0.5;entryDx=0;entryDy=0;" edge="1" parent="1" source="NPjLxnOg4CO_xDkKk2QQ-5" target="NPjLxnOg4CO_xDkKk2QQ-17">
          <mxGeometry relative="1" as="geometry" />
        </mxCell>
        <mxCell id="NPjLxnOg4CO_xDkKk2QQ-5" value="App Level" style="whiteSpace=wrap;html=1;rounded=0;" vertex="1" parent="1">
          <mxGeometry x="2390" y="890" width="120" height="60" as="geometry" />
        </mxCell>
        <mxCell id="NPjLxnOg4CO_xDkKk2QQ-19" style="edgeStyle=orthogonalEdgeStyle;rounded=0;orthogonalLoop=1;jettySize=auto;html=1;entryX=0;entryY=0.5;entryDx=0;entryDy=0;" edge="1" parent="1" source="NPjLxnOg4CO_xDkKk2QQ-10" target="NPjLxnOg4CO_xDkKk2QQ-17">
          <mxGeometry relative="1" as="geometry" />
        </mxCell>
        <mxCell id="NPjLxnOg4CO_xDkKk2QQ-10" value="Page Level" style="whiteSpace=wrap;html=1;rounded=0;" vertex="1" parent="1">
          <mxGeometry x="2390" y="1020" width="120" height="60" as="geometry" />
        </mxCell>
        <mxCell id="NPjLxnOg4CO_xDkKk2QQ-13" value="Builder Metadata" style="whiteSpace=wrap;html=1;rounded=0;" vertex="1" parent="1">
          <mxGeometry x="2770" y="920" width="120" height="60" as="geometry" />
        </mxCell>
        <mxCell id="NPjLxnOg4CO_xDkKk2QQ-14" value="Builder Registry" style="whiteSpace=wrap;html=1;rounded=0;" vertex="1" parent="1">
          <mxGeometry x="2770" y="1000" width="120" height="60" as="geometry" />
        </mxCell>
        <mxCell id="NPjLxnOg4CO_xDkKk2QQ-20" style="edgeStyle=orthogonalEdgeStyle;rounded=0;orthogonalLoop=1;jettySize=auto;html=1;entryX=0;entryY=0.5;entryDx=0;entryDy=0;" edge="1" parent="1" source="NPjLxnOg4CO_xDkKk2QQ-17" target="NPjLxnOg4CO_xDkKk2QQ-13">
          <mxGeometry relative="1" as="geometry" />
        </mxCell>
        <mxCell id="NPjLxnOg4CO_xDkKk2QQ-21" style="edgeStyle=orthogonalEdgeStyle;rounded=0;orthogonalLoop=1;jettySize=auto;html=1;entryX=0;entryY=0.5;entryDx=0;entryDy=0;" edge="1" parent="1" source="NPjLxnOg4CO_xDkKk2QQ-17" target="NPjLxnOg4CO_xDkKk2QQ-14">
          <mxGeometry relative="1" as="geometry" />
        </mxCell>
        <mxCell id="NPjLxnOg4CO_xDkKk2QQ-17" value="Builder Config" style="whiteSpace=wrap;html=1;rounded=0;" vertex="1" parent="1">
          <mxGeometry x="2590" y="960" width="120" height="60" as="geometry" />
        </mxCell>
        <mxCell id="NPjLxnOg4CO_xDkKk2QQ-25" style="edgeStyle=orthogonalEdgeStyle;rounded=0;orthogonalLoop=1;jettySize=auto;html=1;entryX=0;entryY=0.5;entryDx=0;entryDy=0;" edge="1" parent="1" source="NPjLxnOg4CO_xDkKk2QQ-22" target="NPjLxnOg4CO_xDkKk2QQ-24">
          <mxGeometry relative="1" as="geometry" />
        </mxCell>
        <mxCell id="NPjLxnOg4CO_xDkKk2QQ-22" value="Metadata modification&amp;nbsp;" style="whiteSpace=wrap;html=1;rounded=0;" vertex="1" parent="1">
          <mxGeometry x="2360" y="1310" width="120" height="60" as="geometry" />
        </mxCell>
        <mxCell id="NPjLxnOg4CO_xDkKk2QQ-24" value="Template Preview" style="whiteSpace=wrap;html=1;rounded=0;" vertex="1" parent="1">
          <mxGeometry x="2570" y="1310" width="120" height="60" as="geometry" />
        </mxCell>
        <mxCell id="NPjLxnOg4CO_xDkKk2QQ-26" value="Components" style="rounded=0;whiteSpace=wrap;html=1;" vertex="1" parent="1">
          <mxGeometry x="2570" y="1100" width="120" height="60" as="geometry" />
        </mxCell>
        <mxCell id="NPjLxnOg4CO_xDkKk2QQ-27" value="Components.studio.js" style="rounded=0;whiteSpace=wrap;html=1;" vertex="1" parent="1">
          <mxGeometry x="2740" y="1100" width="120" height="60" as="geometry" />
        </mxCell>
        <mxCell id="NPjLxnOg4CO_xDkKk2QQ-28" value="Studio Admin Config" style="rounded=0;whiteSpace=wrap;html=1;" vertex="1" parent="1">
          <mxGeometry x="2140" y="1430" width="120" height="60" as="geometry" />
        </mxCell>
        <mxCell id="NPjLxnOg4CO_xDkKk2QQ-43" style="edgeStyle=orthogonalEdgeStyle;rounded=0;orthogonalLoop=1;jettySize=auto;html=1;entryX=0;entryY=0.5;entryDx=0;entryDy=0;" edge="1" parent="1" source="NPjLxnOg4CO_xDkKk2QQ-30" target="NPjLxnOg4CO_xDkKk2QQ-41">
          <mxGeometry relative="1" as="geometry" />
        </mxCell>
        <mxCell id="NPjLxnOg4CO_xDkKk2QQ-30" value="APP CODEBASE&lt;br&gt;(Checkout Repo)" style="rounded=0;whiteSpace=wrap;html=1;" vertex="1" parent="1">
          <mxGeometry x="1230" y="240" width="120" height="60" as="geometry" />
        </mxCell>
        <mxCell id="NPjLxnOg4CO_xDkKk2QQ-42" style="edgeStyle=orthogonalEdgeStyle;rounded=0;orthogonalLoop=1;jettySize=auto;html=1;entryX=0.5;entryY=0;entryDx=0;entryDy=0;" edge="1" parent="1" source="NPjLxnOg4CO_xDkKk2QQ-41" target="NPjLxnOg4CO_xDkKk2QQ-40">
          <mxGeometry relative="1" as="geometry" />
        </mxCell>
        <mxCell id="NPjLxnOg4CO_xDkKk2QQ-41" value="Deployment Pipeline" style="rounded=0;whiteSpace=wrap;html=1;" vertex="1" parent="1">
          <mxGeometry x="1490" y="240" width="120" height="60" as="geometry" />
        </mxCell>
        <mxCell id="NPjLxnOg4CO_xDkKk2QQ-46" value="" style="group" vertex="1" connectable="0" parent="1">
          <mxGeometry x="1390" y="340" width="320" height="190" as="geometry" />
        </mxCell>
        <mxCell id="NPjLxnOg4CO_xDkKk2QQ-40" value="" style="rounded=0;whiteSpace=wrap;html=1;fillColor=none;" vertex="1" parent="NPjLxnOg4CO_xDkKk2QQ-46">
          <mxGeometry width="320" height="190" as="geometry" />
        </mxCell>
        <mxCell id="NPjLxnOg4CO_xDkKk2QQ-32" value="Dev" style="rounded=0;whiteSpace=wrap;html=1;" vertex="1" parent="NPjLxnOg4CO_xDkKk2QQ-46">
          <mxGeometry x="20" y="20" width="120" height="60" as="geometry" />
        </mxCell>
        <mxCell id="NPjLxnOg4CO_xDkKk2QQ-33" value="Stage" style="rounded=0;whiteSpace=wrap;html=1;" vertex="1" parent="NPjLxnOg4CO_xDkKk2QQ-46">
          <mxGeometry x="20" y="110" width="120" height="60" as="geometry" />
        </mxCell>
        <mxCell id="NPjLxnOg4CO_xDkKk2QQ-34" value="Preprod" style="rounded=0;whiteSpace=wrap;html=1;" vertex="1" parent="NPjLxnOg4CO_xDkKk2QQ-46">
          <mxGeometry x="180" y="20" width="120" height="60" as="geometry" />
        </mxCell>
        <mxCell id="NPjLxnOg4CO_xDkKk2QQ-35" value="Prod" style="rounded=0;whiteSpace=wrap;html=1;" vertex="1" parent="NPjLxnOg4CO_xDkKk2QQ-46">
          <mxGeometry x="180" y="110" width="120" height="60" as="geometry" />
        </mxCell>
        <mxCell id="NPjLxnOg4CO_xDkKk2QQ-48" value="" style="rounded=0;whiteSpace=wrap;html=1;fillColor=none;" vertex="1" parent="1">
          <mxGeometry x="1200" y="585" width="540" height="315" as="geometry" />
        </mxCell>
        <mxCell id="NPjLxnOg4CO_xDkKk2QQ-49" value="AEC STUDIO" style="rounded=0;whiteSpace=wrap;html=1;" vertex="1" parent="1">
          <mxGeometry x="1230" y="610" width="120" height="60" as="geometry" />
        </mxCell>
        <mxCell id="NPjLxnOg4CO_xDkKk2QQ-51" value="" style="rounded=0;whiteSpace=wrap;html=1;fillColor=none;" vertex="1" parent="1">
          <mxGeometry x="1400" y="610" width="160" height="260" as="geometry" />
        </mxCell>
        <mxCell id="NPjLxnOg4CO_xDkKk2QQ-52" value="Template/Component&lt;br&gt;Master List" style="rounded=0;whiteSpace=wrap;html=1;" vertex="1" parent="1">
          <mxGeometry x="1420" y="710" width="120" height="60" as="geometry" />
        </mxCell>
        <mxCell id="NPjLxnOg4CO_xDkKk2QQ-53" value="Studio UI Workflow Config" style="rounded=0;whiteSpace=wrap;html=1;" vertex="1" parent="1">
          <mxGeometry x="1420" y="790" width="120" height="60" as="geometry" />
        </mxCell>
        <mxCell id="NPjLxnOg4CO_xDkKk2QQ-54" value="Template/Component&lt;br&gt;Codebase List&lt;br&gt;(Real Time)" style="rounded=0;whiteSpace=wrap;html=1;" vertex="1" parent="1">
          <mxGeometry x="1420" y="630" width="120" height="60" as="geometry" />
        </mxCell>
        <mxCell id="NPjLxnOg4CO_xDkKk2QQ-56" style="edgeStyle=orthogonalEdgeStyle;rounded=0;orthogonalLoop=1;jettySize=auto;html=1;entryX=0.004;entryY=0.118;entryDx=0;entryDy=0;entryPerimeter=0;" edge="1" parent="1" source="NPjLxnOg4CO_xDkKk2QQ-49" target="NPjLxnOg4CO_xDkKk2QQ-51">
          <mxGeometry relative="1" as="geometry" />
        </mxCell>
      </root>
    </mxGraphModel>
  </diagram>
</mxfile>
